<?xml version="1.0" encoding="utf-8"?>
<!-- Generator: Adobe Illustrator 27.5.0, SVG Export Plug-In . SVG Version: 6.00 Build 0)  -->
<svg version="1.1" id="Capa_1" xmlns="http://www.w3.org/2000/svg" xmlns:xlink="http://www.w3.org/1999/xlink" x="0px" y="0px"
	 viewBox="0 0 2122 2122" style="enable-background:new 0 0 2122 2122;" xml:space="preserve">
<g>
	<path style="fill:#DFF2FD;" d="M1860.72,503.257h-50.498v-39.179c0,0-7.802-4.612-22.632-11.516
		c-37.9-17.644-121.701-50.257-238.499-59.128c-8.78-0.667-17.81-0.997-27.048-1.02c-147.289-0.364-347.262,77.296-426.739,110.842
		h-34.645h-34.645c-84.461-35.651-305.012-121.122-453.786-109.822c-162.501,12.342-261.131,70.643-261.131,70.643v39.179h-50.498
		l-36.06,51.335v1174.315h836.12h836.121V554.592L1860.72,503.257z"/>
	<path style="fill:#A21B17;" d="M1860.72,503.257h-50.498V1544.3c0,0-0.109-0.072-0.323-0.212c0.214,0.14,0.323,0.212,0.323,0.212
		c-38.538,39.18-54.196,81.592-54.196,81.592H1060.66H365.294c0,0-15.658-42.412-54.196-81.592c0.001,0,0.001-0.001,0.001-0.001
		l-0.001,0.001V503.257h-50.498l-36.06,51.335v1174.315h836.12h836.121V554.592L1860.72,503.257z"/>
	<path style="fill:#DA2A15;" d="M1095.305,503.257h-34.645h-34.645c21.877,9.234,34.645,15.134,34.645,15.134
		S1073.427,512.491,1095.305,503.257z"/>
	<polygon style="fill:#891811;" points="1060.66,1728.907 1896.781,1728.907 1896.781,554.592 1860.72,503.258 1860.72,1677.572 
		1060.66,1677.572 	"/>
	<path style="fill:#BE1111;" d="M1095.305,503.257h-34.645v15.134C1060.66,518.391,1073.427,512.491,1095.305,503.257z"/>
	<path style="fill:#DA2A15;" d="M311.098,1544.3c0.001,0,0.001-0.001,0.001-0.001L311.098,1544.3V503.257h-50.498v1174.315h800.06
		v-51.679H365.294C365.294,1625.892,349.636,1583.48,311.098,1544.3z"/>
	<path style="fill:#B4E1FA;" d="M983.009,606.372c-233.949-133.738-505.219-90.343-563.711-78.777v35.679
		c33.472-6.932,327.611-61.997,563.711,83.751V606.372z"/>
	<path style="fill:#B4E1FA;" d="M983.009,724.981C749.061,591.244,477.79,634.64,419.298,646.205v35.679
		c33.473-6.932,327.613-62.002,563.711,83.751V724.981z"/>
	<path style="fill:#B4E1FA;" d="M983.009,843.59c-233.949-133.737-505.219-90.343-563.711-78.777v35.68
		c33.473-6.933,327.613-62.002,563.711,83.75V843.59z"/>
	<path style="fill:#B4E1FA;" d="M983.009,962.196C749.061,828.459,477.79,871.855,419.298,883.42v35.679
		c33.473-6.933,327.613-62.002,563.711,83.75V962.196z"/>
	<path style="fill:#B4E1FA;" d="M983.009,1080.805c-233.949-133.739-505.219-90.343-563.711-78.777v35.679
		c33.473-6.933,327.613-62.002,563.711,83.751V1080.805z"/>
	<path style="fill:#B4E1FA;" d="M983.009,1199.412c-233.949-133.737-505.219-90.343-563.711-78.777v35.679
		c33.472-6.932,327.611-61.998,563.711,83.751V1199.412z"/>
	<path style="fill:#B4E1FA;" d="M983.009,1318.021c-233.949-133.738-505.219-90.341-563.711-78.776v35.679
		c33.473-6.933,327.613-62.002,563.711,83.75V1318.021z"/>
	<path style="fill:#B4E1FA;" d="M983.009,1436.629c-233.949-133.737-505.219-90.343-563.711-78.777v35.679
		c33.473-6.933,327.613-62.002,563.711,83.75V1436.629z"/>
	<path style="fill:#B4E1FA;" d="M311.099,1544.299c0,0-0.001,0.001-0.001,0.001c38.538,39.18,54.196,81.592,54.196,81.592h695.366
		v-27.279l-0.001-0.001c-0.052-0.022-289.283-121.62-493.172-123.99C418.144,1472.885,311.129,1544.279,311.099,1544.299z"/>
	<path style="fill:#CBE9FC;" d="M1549.092,393.435c-187.311-14.226-488.431,124.956-488.431,124.956v1080.222l0,0v27.279h695.367
		c0,0,15.658-42.412,54.196-81.592V464.078C1810.222,464.078,1711.593,405.776,1549.092,393.435z"/>
	<path style="fill:#80CFF5;" d="M1138.311,606.372c233.948-133.738,505.219-90.343,563.712-78.777v35.679
		c-33.473-6.932-327.612-61.997-563.712,83.751V606.372z"/>
	<path style="fill:#80CFF5;" d="M1138.311,724.981c233.948-133.737,505.219-90.341,563.712-78.776v35.679
		c-33.473-6.932-327.613-62.002-563.712,83.751V724.981z"/>
	<path style="fill:#80CFF5;" d="M1138.311,843.59c233.948-133.737,505.219-90.343,563.712-78.777v35.68
		c-33.473-6.933-327.613-62.002-563.712,83.75V843.59z"/>
	<path style="fill:#80CFF5;" d="M1138.311,962.196c233.948-133.737,505.219-90.341,563.712-78.776v35.679
		c-33.473-6.933-327.613-62.002-563.712,83.75V962.196z"/>
	<path style="fill:#80CFF5;" d="M1138.311,1080.805c233.948-133.739,505.219-90.343,563.712-78.777v35.679
		c-33.473-6.933-327.613-62.002-563.712,83.751V1080.805z"/>
	<path style="fill:#80CFF5;" d="M1138.311,1199.412c233.948-133.737,505.219-90.343,563.712-78.777v35.679
		c-33.473-6.932-327.612-61.998-563.712,83.751V1199.412z"/>
	<path style="fill:#80CFF5;" d="M1138.311,1318.021c233.948-133.738,505.219-90.341,563.712-78.776v35.679
		c-33.473-6.933-327.613-62.002-563.712,83.75V1318.021z"/>
	<path style="fill:#80CFF5;" d="M1138.311,1436.629c233.948-133.737,505.219-90.343,563.712-78.777v35.679
		c-33.473-6.933-327.613-62.002-563.712,83.75V1436.629z"/>
	<path style="fill:#80CFF5;" d="M1060.66,1598.613L1060.66,1598.613L1060.66,1598.613l0,27.279h695.367
		c0,0,15.658-42.412,54.196-81.592c0,0-107.024-71.416-256.389-69.678C1349.925,1476.993,1060.66,1598.613,1060.66,1598.613z"/>
</g>
</svg>
